<svg width="995" height="671" viewBox="0 0 995 671" fill="none" xmlns="http://www.w3.org/2000/svg">
<path d="M464.9 252.7L464.8 252.6C456.5 245.2 426.3 221.1 408.7 204.5C397.6 194 389.2 180.1 385.8 166.9C384 159.9 383.7 154.6 383.7 146.5C383.7 114 397.1 87.6002 413.6 87.6002C420.1 87.6002 425.6 90.4002 430.4 97.1002C430.6 97.5002 430.9 97.9002 431.2 98.3002C431.4 98.6002 431.6 98.9002 431.8 99.2002C432.2 99.7002 432.8 100.3 433.4 101L433.5 101.1C446.4 113.8 458.7 143.8 460.5 148.1C460.5 148.2 460.6 148.4 460.7 148.5C460.7 148.6 460.8 148.7 460.8 148.7C460.8 148.7 461.7 150.7 462 152.4V152.5V152.6C462.2 153.3 462.9 153.9 463.7 153.9C463.7 153.9 465.7 154.2 468.9 149.4C469.5 148.6 469.9 147.6 469.9 146.6C469.9 146.1 469.8 145.7 469.7 145.3C463.3 123.7 464.7 110.1 465 107.5C466.4 108 467.8 108.1 469.1 107.6C474.7 105.8 476.5 95.8002 473.1 85.2002C472 81.7002 470.4 78.6002 468.7 76.0002C455.6 52.3002 437.2 38.7002 415.9 38.7002C376.5 38.7002 344.6 89.5002 344.6 152.2C344.6 189.7 362.4 224.4 383.1 245.7C240.2 167.9 93.6 262.8 93.6 262.8C93.6 262.8 80 265.3 50.3 257.2C28.5 251.3 7 237.5 7 237.5C43 297 108.2 329.1 108.2 329.1C217.8 342.8 301.3 345.9 361.3 344.7C444.9 343.1 482.8 333.2 483.1 333.2C486.8 324.7 488.9 315.3 488.9 305.4C488.8 284.4 479.6 265.5 464.9 252.7Z" fill="#FAC6D1"/>
<path d="M943 256.2C913.2 264.3 899.7 261.8 899.7 261.8C899.7 261.8 753.1 166.8 610.2 244.7C630.9 223.4 648.7 188.8 648.7 151.2C648.7 88.5002 616.8 37.7002 577.4 37.7002C556 37.7002 537.6 51.3002 524.6 75.0002C522.8 77.6002 521.3 80.7002 520.2 84.2002C516.8 94.8002 518.6 104.8 524.2 106.6C525.5 107 526.9 106.9 528.3 106.5C528.7 109 530.1 122.7 523.6 144.3C523.5 144.7 523.4 145.2 523.4 145.6C523.4 146.7 523.8 147.6 524.4 148.4C527.6 153.2 529.6 152.9 529.6 152.9C530.4 152.9 531.1 152.4 531.3 151.6V151.5V151.4C531.6 149.7 532.5 147.7 532.5 147.7C532.5 147.7 532.5 147.6 532.6 147.5C532.7 147.4 532.7 147.2 532.8 147.1C534.6 142.7 546.9 112.8 559.8 100.1L559.9 100C560.6 99.3002 561.1 98.7002 561.5 98.2002C561.7 97.9002 561.9 97.6002 562.1 97.3002C562.4 96.9002 562.6 96.5002 562.9 96.1002C567.7 89.4002 573.2 86.6002 579.7 86.6002C596.2 86.6002 609.6 113 609.6 145.5C609.6 153.6 609.3 159 607.5 165.9C604.1 179.1 595.8 193 584.6 203.5C567 220.1 536.7 244.1 528.5 251.6C528.4 251.6 528.4 251.7 528.4 251.7C513.7 264.5 504.4 283.3 504.4 304.3C504.4 314.2 506.5 323.6 510.2 332.1C510.5 332.2 548.4 342 632 343.6C692 344.8 775.5 341.8 885.3 327.9C885.3 327.9 950.5 295.8 986.5 236.3C986.3 236.5 964.8 250.3 943 256.2Z" fill="#FAC6D1"/>
<path d="M258.8 109.5C213.3 50.3999 156.1 11.3999 106.8 0.899902C105.6 22.1999 109.1 46.2999 117 71.3999C108.3 69.5999 99.8 68.5999 91.6 68.3999C91.5 99.2999 103.7 134.8 126.8 168C110 169.2 94.5 172.7 81 178.3C97.7 216.4 138.2 253.2 192.4 274.9C246.6 296.5 301.5 297.8 340.2 281.8C336 272.2 330.2 262.6 323.1 253.4C317.6 208.9 295.6 157.2 258.8 109.5Z" fill="#FAC6D1"/>
<path d="M866.1 167.1C889.2 133.9 901.4 98.4 901.3 67.5C893.1 67.7 884.6 68.7 875.9 70.5C883.8 45.3 887.3 21.3 886.1 0C836.8 10.5 779.6 49.5 734.1 108.6C697.3 156.4 675.4 208 669.8 252.4C662.7 261.7 656.9 271.2 652.7 280.8C691.4 296.7 746.3 295.5 800.5 273.9C854.7 252.3 895.2 215.4 911.9 177.3C898.4 171.8 882.9 168.3 866.1 167.1Z" fill="#FAC6D1"/>
<path d="M465.2 107.5C465.2 107.5 464.5 99.0998 453.9 98.8998C443.3 98.6998 448.1 107.7 450 114.2C451.9 120.7 465.8 149.7 465.1 153.4C465.1 153.4 470.3 149 469.7 145.8C469.7 145.8 463.2 117.2 465.2 107.5Z" fill="#EF4C72"/>
<path d="M539.1 97.9999C528.5 98.1999 527.8 106.6 527.8 106.6C529.7 116.3 523.2 144.9 523.2 144.9C522.6 148.1 527.8 152.5 527.8 152.5C527.1 148.8 541 119.7 542.9 113.3C544.9 106.8 549.6 97.7999 539.1 97.9999Z" fill="#EF4C72"/>
<path d="M341.5 287.7C336.2 287.7 331.1 288.9 326.7 291.1C340.4 279.5 349.1 262.8 349.1 244.2C349.1 209 318.1 180.5 279.9 180.5C269.8 180.5 260.2 182.5 251.5 186.1C251.5 186.1 113.1 222.5 79.7 347.7C79.7 347.7 118.6 338.6 166 344.9C213.4 351.2 240.3 384 299.8 379.8C359.3 375.6 372.3 320.1 372.3 320.1L372 319.9C372.2 318.7 372.3 317.4 372.3 316.1C372.5 300.4 358.6 287.7 341.5 287.7Z" fill="#EF4C72"/>
<path d="M741.4 185.3C732.7 181.7 723.1 179.7 713 179.7C674.8 179.7 643.8 208.2 643.8 243.4C643.8 261.9 652.4 278.6 666.2 290.3C661.8 288.1 656.8 286.9 651.4 286.9C634.3 286.9 620.5 299.6 620.5 315.4C620.5 316.7 620.6 318 620.8 319.2L620.5 319.4C620.5 319.4 633.6 375 693 379.1C752.5 383.3 779.3 350.4 826.8 344.2C874.3 338 913.1 347 913.1 347C879.8 221.7 741.4 185.3 741.4 185.3Z" fill="#EF4C72"/>
<path d="M183.4 488.17C183.667 488.17 183.8 488.57 183.8 489.37C183.8 490.17 183.667 490.57 183.4 490.57C178.467 490.57 173.8 492.704 169.4 496.97C165.133 501.104 161.6 506.837 158.8 514.17L121.8 612.97C121.667 613.504 120.933 613.77 119.6 613.77C118.267 613.77 117.533 613.504 117.4 612.97L91.8 558.77L71.6 612.97C71.4667 613.504 70.7333 613.77 69.4 613.77C68.0667 613.77 67.3333 613.504 67.2 612.97L16.2 504.77C14.2 500.504 12.5333 497.437 11.2 495.57C10 493.704 8.6 492.437 7 491.77C5.53333 490.97 3.53333 490.57 1 490.57C0.6 490.57 0.4 490.17 0.4 489.37C0.4 488.57 0.6 488.17 1 488.17C3 488.17 4.4 488.237 5.2 488.37C7.86667 488.637 11.3333 488.77 15.6 488.77C24.5333 488.77 32.0667 488.637 38.2 488.37C39.9333 488.237 42.0667 488.17 44.6 488.17C45 488.17 45.2 488.57 45.2 489.37C45.2 490.17 45 490.57 44.6 490.57C41.2667 490.57 38.8667 490.904 37.4 491.57C36.0667 492.237 35.4 493.437 35.4 495.17C35.4 497.437 36.9333 501.837 40 508.37L76 584.77L88.6 551.77L66.4 504.77C64.1333 499.97 62 496.437 60 494.17C58 491.77 55.8667 490.57 53.6 490.57C53.2 490.57 53 490.17 53 489.37C53 488.57 53.2 488.17 53.6 488.17C54.9333 488.17 56.4667 488.304 58.2 488.57C60.0667 488.704 62.6667 488.77 66 488.77C73.6 488.77 79.9333 488.637 85 488.37C86.3333 488.237 88.0667 488.17 90.2 488.17C90.6 488.17 90.8 488.57 90.8 489.37C90.8 490.17 90.6 490.57 90.2 490.57C88.3333 490.57 86.9333 490.837 86 491.37C85.2 491.77 84.8 492.57 84.8 493.77C84.8 496.037 86.6 500.904 90.2 508.37L99 526.97L104 513.57C106.933 505.97 108.4 500.237 108.4 496.37C108.4 492.504 106.733 490.57 103.4 490.57C103 490.57 102.8 490.17 102.8 489.37C102.8 488.57 103 488.17 103.4 488.17C104.467 488.17 105.6 488.304 106.8 488.57C108.133 488.704 111.333 488.77 116.4 488.77C118.667 488.77 121.4 488.637 124.6 488.37L132 488.17C132.267 488.17 132.4 488.57 132.4 489.37C132.4 490.17 132.267 490.57 132 490.57C123.067 490.57 115.667 498.437 109.8 514.17L102.4 533.97L126.4 584.57L152.2 515.57C153.8 511.304 154.6 507.437 154.6 503.97C154.6 499.837 153.533 496.57 151.4 494.17C149.4 491.77 146.667 490.57 143.2 490.57C142.8 490.57 142.6 490.17 142.6 489.37C142.6 488.57 142.8 488.17 143.2 488.17L152.4 488.37C157.2 488.637 161.6 488.77 165.6 488.77C168.267 488.77 171.333 488.637 174.8 488.37L183.4 488.17ZM227.627 596.97C227.627 601.104 227.96 604.104 228.627 605.97C229.293 607.837 230.56 609.104 232.427 609.77C234.427 610.437 237.56 610.77 241.827 610.77C242.227 610.77 242.427 611.17 242.427 611.97C242.427 612.77 242.227 613.17 241.827 613.17C237.427 613.17 233.96 613.104 231.427 612.97L216.227 612.77L201.427 612.97C198.76 613.104 195.16 613.17 190.627 613.17C190.36 613.17 190.227 612.77 190.227 611.97C190.227 611.17 190.36 610.77 190.627 610.77C194.893 610.77 198.027 610.437 200.027 609.77C202.027 609.104 203.36 607.837 204.027 605.97C204.827 603.97 205.227 600.97 205.227 596.97V504.37C205.227 500.37 204.827 497.437 204.027 495.57C203.36 493.704 202.027 492.437 200.027 491.77C198.027 490.97 194.893 490.57 190.627 490.57C190.36 490.57 190.227 490.17 190.227 489.37C190.227 488.57 190.36 488.17 190.627 488.17L201.427 488.37C207.56 488.637 212.493 488.77 216.227 488.77C220.36 488.77 225.493 488.637 231.627 488.37L241.827 488.17C242.227 488.17 242.427 488.57 242.427 489.37C242.427 490.17 242.227 490.57 241.827 490.57C237.693 490.57 234.627 490.97 232.627 491.77C230.627 492.57 229.293 493.97 228.627 495.97C227.96 497.837 227.627 500.77 227.627 504.77V596.97ZM395.186 488.17C395.453 488.17 395.586 488.57 395.586 489.37C395.586 490.17 395.453 490.57 395.186 490.57C389.853 490.57 385.653 492.704 382.586 496.97C379.519 501.104 377.986 506.704 377.986 513.77V616.17C377.986 616.57 377.653 616.837 376.986 616.97C376.453 617.104 376.053 617.037 375.786 616.77L281.986 509.97V587.77C281.986 594.837 283.453 600.437 286.386 604.57C289.319 608.704 293.386 610.77 298.586 610.77C298.853 610.77 298.986 611.17 298.986 611.97C298.986 612.77 298.853 613.17 298.586 613.17C294.853 613.17 291.986 613.104 289.986 612.97L279.186 612.77L266.786 612.97C264.519 613.104 261.253 613.17 256.986 613.17C256.586 613.17 256.386 612.77 256.386 611.97C256.386 611.17 256.586 610.77 256.986 610.77C262.853 610.77 267.453 608.704 270.786 604.57C274.253 600.437 275.986 594.837 275.986 587.77V503.17C271.586 498.37 267.786 495.104 264.586 493.37C261.519 491.504 258.319 490.57 254.986 490.57C254.719 490.57 254.586 490.17 254.586 489.37C254.586 488.57 254.719 488.17 254.986 488.17L263.386 488.37C265.119 488.504 267.653 488.57 270.986 488.57L286.186 488.37C288.053 488.237 290.319 488.17 292.986 488.17C294.053 488.17 294.853 488.437 295.386 488.97C295.919 489.504 296.853 490.637 298.186 492.37C300.453 495.437 302.053 497.504 302.986 498.57L372.186 578.37V513.77C372.186 506.57 370.719 500.904 367.786 496.77C364.853 492.637 360.786 490.57 355.586 490.57C355.319 490.57 355.186 490.17 355.186 489.37C355.186 488.57 355.319 488.17 355.586 488.17L364.186 488.37C368.453 488.637 372.053 488.77 374.986 488.77C377.653 488.77 381.386 488.637 386.186 488.37L395.186 488.17ZM481.856 615.57C466.656 615.57 453.456 612.77 442.256 607.17C431.056 601.437 422.456 593.704 416.456 583.97C410.456 574.237 407.456 563.437 407.456 551.57C407.456 538.904 410.79 527.57 417.456 517.57C424.256 507.57 433.59 499.837 445.456 494.37C457.323 488.77 470.656 485.97 485.456 485.97C491.856 485.97 498.256 486.504 504.656 487.57C511.056 488.504 516.19 489.77 520.056 491.37C521.523 491.904 522.323 492.37 522.456 492.77C522.723 493.037 522.923 494.104 523.056 495.97L525.656 523.77C525.656 524.17 525.256 524.437 524.456 524.57C523.79 524.704 523.39 524.504 523.256 523.97C521.523 519.57 518.723 514.77 514.856 509.57C510.99 504.37 505.923 499.837 499.656 495.97C493.39 492.104 486.123 490.17 477.856 490.17C469.323 490.17 461.523 492.504 454.456 497.17C447.39 501.837 441.79 508.504 437.656 517.17C433.656 525.837 431.656 535.904 431.656 547.37C431.656 559.904 433.99 571.104 438.656 580.97C443.456 590.837 450.056 598.504 458.456 603.97C466.856 609.437 476.323 612.17 486.856 612.17C492.323 612.17 496.523 611.57 499.456 610.37C502.39 609.17 504.523 606.837 505.856 603.37C507.19 599.904 507.856 594.77 507.856 587.97C507.856 581.037 507.456 576.237 506.656 573.57C505.856 570.77 504.123 568.904 501.456 567.97C498.923 567.037 494.39 566.57 487.856 566.57C487.056 566.57 486.656 566.037 486.656 564.97C486.656 564.57 486.723 564.237 486.856 563.97C487.123 563.57 487.39 563.37 487.656 563.37C498.99 564.037 508.19 564.37 515.256 564.37C522.056 564.37 529.123 564.17 536.456 563.77C536.99 563.77 537.256 564.237 537.256 565.17C537.39 566.104 537.123 566.57 536.456 566.57C534.056 566.437 532.323 566.904 531.256 567.97C530.323 568.904 529.723 570.904 529.456 573.97C529.19 577.037 529.056 582.37 529.056 589.97C529.056 595.97 529.256 600.237 529.656 602.77C530.19 605.304 530.456 606.904 530.456 607.57C530.456 608.37 530.323 608.904 530.056 609.17C529.79 609.437 529.19 609.704 528.256 609.97C511.056 613.704 495.59 615.57 481.856 615.57ZM586.545 596.17C586.545 599.637 586.812 602.17 587.345 603.77C587.879 605.237 588.879 606.237 590.345 606.77C591.945 607.304 594.479 607.57 597.945 607.57H604.745C615.145 607.57 624.145 604.837 631.745 599.37C639.345 593.77 644.412 586.237 646.945 576.77C646.945 576.504 647.212 576.37 647.745 576.37C648.012 576.37 648.279 576.504 648.545 576.77C648.945 576.904 649.145 577.037 649.145 577.17C647.945 590.37 647.345 601.37 647.345 610.17C647.345 611.237 647.079 612.037 646.545 612.57C646.145 612.97 645.412 613.17 644.345 613.17H549.945C549.679 613.17 549.545 612.77 549.545 611.97C549.545 611.17 549.679 610.77 549.945 610.77C554.212 610.77 557.279 610.437 559.145 609.77C561.145 609.104 562.479 607.837 563.145 605.97C563.945 603.97 564.345 600.97 564.345 596.97V504.37C564.345 500.37 563.945 497.437 563.145 495.57C562.479 493.704 561.145 492.437 559.145 491.77C557.145 490.97 554.079 490.57 549.945 490.57C549.679 490.57 549.545 490.17 549.545 489.37C549.545 488.57 549.679 488.17 549.945 488.17L560.145 488.37C566.279 488.637 571.345 488.77 575.345 488.77C579.345 488.77 584.412 488.637 590.545 488.37L600.745 488.17C601.145 488.17 601.345 488.57 601.345 489.37C601.345 490.17 601.145 490.57 600.745 490.57C596.612 490.57 593.545 490.97 591.545 491.77C589.545 492.437 588.212 493.77 587.545 495.77C586.879 497.637 586.545 500.57 586.545 504.57V596.17ZM752.13 581.37C752.13 581.104 752.396 580.97 752.93 580.97C753.33 580.97 753.663 581.104 753.93 581.37C754.33 581.504 754.53 581.637 754.53 581.77C753.196 592.17 752.53 601.637 752.53 610.17C752.53 611.237 752.33 612.037 751.93 612.57C751.53 612.97 750.73 613.17 749.53 613.17H661.13C660.73 613.17 660.53 612.77 660.53 611.97C660.53 611.17 660.73 610.77 661.13 610.77C665.396 610.77 668.463 610.437 670.33 609.77C672.33 609.104 673.663 607.837 674.33 605.97C674.996 603.97 675.33 600.97 675.33 596.97V504.37C675.33 500.37 674.996 497.437 674.33 495.57C673.663 493.704 672.33 492.437 670.33 491.77C668.33 490.97 665.263 490.57 661.13 490.57C660.73 490.57 660.53 490.17 660.53 489.37C660.53 488.57 660.73 488.17 661.13 488.17H745.93C747.263 488.17 747.93 488.77 747.93 489.97L748.33 516.57C748.33 516.837 747.93 517.037 747.13 517.17C746.463 517.304 746.063 517.17 745.93 516.77C743.796 509.037 740.196 503.304 735.13 499.57C730.063 495.837 723.396 493.97 715.13 493.97H709.13C705.13 493.97 702.196 494.837 700.33 496.57C698.463 498.304 697.53 500.97 697.53 504.57V545.37H714.13C721.863 545.37 727.796 544.037 731.93 541.37C736.063 538.704 738.13 534.97 738.13 530.17C738.13 529.77 738.463 529.57 739.13 529.57C739.93 529.57 740.33 529.77 740.33 530.17L740.13 548.17L740.33 557.77C740.596 562.304 740.73 565.904 740.73 568.57C740.73 568.837 740.33 568.97 739.53 568.97C738.73 568.97 738.33 568.837 738.33 568.57C738.33 563.104 736.196 558.837 731.93 555.77C727.796 552.57 721.796 550.97 713.93 550.97H697.53V596.17C697.53 600.037 698.263 602.904 699.73 604.77C701.196 606.637 703.53 607.57 706.73 607.57H713.33C723.73 607.57 732.063 605.437 738.33 601.17C744.596 596.904 749.196 590.304 752.13 581.37ZM807.681 492.77C791.815 492.77 780.415 503.104 773.481 523.77C773.348 524.17 772.948 524.37 772.281 524.37C771.615 524.237 771.281 523.97 771.281 523.57C771.815 518.237 772.415 511.37 773.081 502.97C773.748 494.437 774.081 488.037 774.081 483.77C774.081 483.104 774.415 482.77 775.081 482.77C775.881 482.77 776.281 483.104 776.281 483.77C776.281 486.704 780.081 488.17 787.681 488.17C799.148 488.57 812.548 488.77 827.881 488.77C835.748 488.77 844.081 488.637 852.881 488.37L866.481 488.17C871.548 488.17 875.215 487.837 877.481 487.17C879.881 486.504 881.415 485.17 882.081 483.17C882.215 482.637 882.615 482.37 883.281 482.37C884.081 482.37 884.481 482.637 884.481 483.17C884.081 487.17 883.615 493.57 883.081 502.37C882.681 511.17 882.481 518.237 882.481 523.57C882.481 523.97 882.148 524.17 881.481 524.17C880.815 524.17 880.415 523.97 880.281 523.57C878.281 513.304 874.548 505.637 869.081 500.57C863.615 495.37 856.881 492.77 848.881 492.77C845.015 492.77 842.415 493.637 841.081 495.37C839.881 496.97 839.281 500.104 839.281 504.77V596.97C839.281 601.104 839.681 604.104 840.481 605.97C841.281 607.837 842.815 609.104 845.081 609.77C847.348 610.437 850.948 610.77 855.881 610.77C856.281 610.77 856.481 611.17 856.481 611.97C856.481 612.77 856.281 613.17 855.881 613.17C851.081 613.17 847.281 613.104 844.481 612.97L827.881 612.77L811.681 612.97C808.881 613.104 805.015 613.17 800.081 613.17C799.681 613.17 799.481 612.77 799.481 611.97C799.481 611.17 799.681 610.77 800.081 610.77C804.881 610.77 808.415 610.437 810.681 609.77C813.081 609.104 814.681 607.837 815.481 605.97C816.415 603.97 816.881 600.97 816.881 596.97V504.37C816.881 499.837 816.281 496.77 815.081 495.17C813.881 493.57 811.415 492.77 807.681 492.77ZM926.597 508.37C926.597 513.17 927.797 517.437 930.197 521.17C932.73 524.904 935.797 528.17 939.397 530.97C942.997 533.77 947.864 537.17 953.997 541.17C960.664 545.437 965.997 549.17 969.997 552.37C973.997 555.57 977.397 559.504 980.197 564.17C982.997 568.704 984.397 573.97 984.397 579.97C984.397 586.904 982.53 593.104 978.797 598.57C975.064 603.904 969.864 608.104 963.197 611.17C956.664 614.104 949.33 615.57 941.197 615.57C935.197 615.57 928.93 614.77 922.397 613.17C915.864 611.437 911.464 609.57 909.197 607.57C908.53 607.037 907.997 606.57 907.597 606.17C907.33 605.637 907.197 604.837 907.197 603.77L906.597 571.97V571.77C906.597 571.237 906.93 570.97 907.597 570.97C908.264 570.837 908.664 571.037 908.797 571.57C912.797 579.704 916.264 586.304 919.197 591.37C922.264 596.437 926.064 600.904 930.597 604.77C935.264 608.637 940.53 610.57 946.397 610.57C951.73 610.57 956.13 609.17 959.597 606.37C963.064 603.437 964.797 598.504 964.797 591.57C964.797 585.704 963.464 580.57 960.797 576.17C958.264 571.77 955.13 568.037 951.397 564.97C947.664 561.904 942.53 558.237 935.997 553.97C929.597 549.837 924.597 546.304 920.997 543.37C917.53 540.437 914.53 536.904 911.997 532.77C909.464 528.637 908.197 523.77 908.197 518.17C908.197 511.104 910.197 505.17 914.197 500.37C918.33 495.437 923.597 491.837 929.997 489.57C936.397 487.17 943.13 485.97 950.197 485.97C954.864 485.97 959.597 486.437 964.397 487.37C969.197 488.17 973.064 489.17 975.997 490.37C977.197 490.904 977.997 491.504 978.397 492.17C978.797 492.704 978.997 493.437 978.997 494.37V523.77C978.997 524.17 978.664 524.504 977.997 524.77C977.33 524.904 976.93 524.77 976.797 524.37L975.197 520.57C971.864 512.17 967.93 505.037 963.397 499.17C958.997 493.304 952.797 490.37 944.797 490.37C939.464 490.37 935.064 491.904 931.597 494.97C928.264 498.037 926.597 502.504 926.597 508.37Z" fill="#EF4C72"/>
</svg>
